<svg width="51" height="51" viewBox="0 0 51 51" fill="none" xmlns="http://www.w3.org/2000/svg">
<g clip-path="url(#clip0)">
<path d="M15.3962 0.697212L44.2431 10.7457L42.6497 15.3199L13.8029 5.27139L15.3962 0.697212Z" fill="#3E92C7"/>
<path d="M3.78003 34.0444L32.6268 44.0929L31.0849 48.5196L2.23806 38.471L3.78003 34.0444Z" fill="#3E92C7"/>
<path d="M17.5322 9.05237L37.452 15.9912L36.681 18.2046L16.7612 11.2657L17.5322 9.05237Z" fill="#3E92C7"/>
<path d="M15.9902 13.479L35.91 20.4179L35.139 22.6312L15.2192 15.6923L15.9902 13.479Z" fill="#3E92C7"/>
<path d="M14.4482 17.9056L34.368 24.8445L33.5971 27.0578L13.6773 20.1189L14.4482 17.9056Z" fill="#3E92C7"/>
<path d="M12.9062 22.3322L32.826 29.2711L32.0551 31.4844L12.1353 24.5455L12.9062 22.3322Z" fill="#3E92C7"/>
<path d="M9.82251 31.1855L29.7423 38.1244L28.9713 40.3377L9.05152 33.3988L9.82251 31.1855Z" fill="#3E92C7"/>
<path d="M43.6566 23.1163C40.6024 22.0524 37.2599 23.6676 36.1959 26.7221L33.8829 33.3621C33.6475 34.0379 32.9651 34.2833 32.3908 34.0832C25.1987 31.5779 19.317 29.5291 11.3643 26.7589L10.5933 28.9722L31.6198 36.2965C33.3746 36.9078 35.438 36.0227 36.0962 34.133L38.4092 27.4931C39.0492 25.6559 41.0487 24.6897 42.8856 25.3296L44.0661 25.7408L44.8371 23.5275L43.6566 23.1163Z" fill="#3E92C7"/>
</g>
<defs>
<clipPath id="clip0">
<rect width="40" height="40" fill="white" transform="translate(13.1572) rotate(19.2053)"/>
</clipPath>
</defs>
</svg>
