<svg width="49" height="49" viewBox="0 0 49 49" fill="none" xmlns="http://www.w3.org/2000/svg">
<g clip-path="url(#clip0)">
<path d="M16.7342 28.2414L15.5009 29.4385C15.3267 29.6077 15.2285 29.84 15.2285 30.0827V30.5935C15.2285 31.0893 15.6306 31.4914 16.1266 31.4914H23.4911C23.9876 31.4914 24.3894 31.0893 24.3894 30.5935V29.9323C24.3894 29.4365 23.9876 29.0342 23.4911 29.0342H19.4219L19.5341 28.9311C22.1936 26.3689 24.0759 24.3522 24.0759 21.7263C24.0759 19.6267 22.7114 17.5083 19.662 17.5083C18.3308 17.5083 17.0271 17.9355 15.9908 18.7108C15.6542 18.9633 15.5374 19.4158 15.7106 19.7995L15.9372 20.3004C16.0472 20.544 16.2594 20.726 16.5175 20.7968C16.774 20.8677 17.0508 20.8198 17.2698 20.6669C17.9361 20.2016 18.6221 19.9655 19.3093 19.9655C20.6467 19.9655 21.3246 20.6304 21.3246 21.9327C21.3067 23.6976 19.8428 25.2819 16.7342 28.2414Z" fill="#3E92C7"/>
<path d="M30.1574 17.727C30.1334 17.7249 30.1092 17.7239 30.0853 17.7239H29.811C29.5174 17.7239 29.2427 17.8673 29.0749 18.1075L23.5748 25.9786C23.4695 26.1294 23.4131 26.309 23.4131 26.493V27.124C23.4131 27.6199 23.8149 28.022 24.3108 28.022H29.3327V30.5935C29.3327 31.0893 29.7344 31.4914 30.2304 31.4914H31.0879C31.5835 31.4914 31.9861 31.0893 31.9861 30.5935V28.022H32.8714C33.3673 28.022 33.7695 27.6199 33.7695 27.124V26.5409C33.7695 26.0452 33.3673 25.643 32.8714 25.643H31.9861V18.622C31.9861 18.1263 31.5835 17.7241 31.0879 17.7241H30.2304C30.2058 17.7241 30.1813 17.725 30.1574 17.727ZM29.3327 25.643H26.621C27.3099 24.6427 28.4878 22.926 29.3327 21.6573V25.643Z" fill="#3E92C7"/>
<path d="M24.5328 45.1158C13.9641 45.1158 5.3656 36.5173 5.3656 25.9486C5.3656 15.9409 13.0758 7.70152 22.8675 6.85444V9.90978C22.8675 10.1268 22.9873 10.3263 23.1787 10.4283C23.2654 10.4746 23.3603 10.4972 23.455 10.4972C23.5695 10.4972 23.684 10.4637 23.7825 10.3973L30.72 5.73624C30.8826 5.62717 30.98 5.4443 30.98 5.24854C30.98 5.05293 30.8826 4.8699 30.72 4.76083L23.7825 0.0997439C23.6024 -0.0212891 23.3701 -0.0334079 23.1786 0.0689807C22.9871 0.171059 22.8674 0.370553 22.8674 0.587449V2.95746C10.9314 3.81386 1.4812 13.7978 1.4812 25.9484C1.4812 38.6591 11.8223 48.9999 24.5326 48.9999C30.4174 48.9999 36.0197 46.7826 40.3076 42.7566L37.6491 39.9249C34.084 43.2723 29.426 45.1158 24.5328 45.1158Z" fill="#3E92C7"/>
<path d="M44.2096 13.9349C43.4156 12.6362 42.4869 11.4099 41.4504 10.2906L38.6003 12.9296C39.463 13.861 40.2351 14.8813 40.8961 15.9616L44.2096 13.9349Z" fill="#3E92C7"/>
<path d="M43.5251 23.3455L47.3741 22.823C47.1687 21.3097 46.8109 19.813 46.3104 18.3745L42.6418 19.6502C43.0573 20.8449 43.3544 22.0881 43.5251 23.3455Z" fill="#3E92C7"/>
<path d="M37.7536 7.06294C36.5037 6.18619 35.1624 5.43218 33.7668 4.82142L32.2097 8.37986C33.3694 8.88745 34.4843 9.51421 35.5233 10.2429L37.7536 7.06294Z" fill="#3E92C7"/>
<path d="M39.3398 38.1204L42.3389 40.5887C43.3091 39.4099 44.1645 38.1312 44.8812 36.7881L41.4546 34.9592C40.8586 36.076 40.1471 37.1397 39.3398 38.1204Z" fill="#3E92C7"/>
<path d="M43.6436 27.4308C43.547 28.6982 43.3234 29.9577 42.9797 31.1741L46.7175 32.231C47.1317 30.7664 47.4005 29.251 47.517 27.7268L43.6436 27.4308Z" fill="#3E92C7"/>
</g>
<defs>
<clipPath id="clip0">
<rect width="49" height="49" fill="white" transform="translate(-0.000976562)"/>
</clipPath>
</defs>
</svg>
