<svg width="52" height="52" viewBox="0 0 52 52" fill="none" xmlns="http://www.w3.org/2000/svg">
<g clip-path="url(#clip0)">
<path d="M13.8927 25.8799L16.4614 16.2935C16.6493 15.5924 16.874 14.9475 17.1331 14.3568L16.9869 14.3177C14.5915 13.6758 12.1204 15.1025 11.4784 17.4982L10.5364 21.014C9.89448 23.4097 11.3212 25.8808 13.7165 26.5226L13.74 26.5289C13.7844 26.3126 13.8348 26.0962 13.8927 25.8799Z" fill="#3E92C7"/>
<path d="M38.6379 20.119L38.4919 20.0799C38.421 20.721 38.2929 21.3918 38.105 22.0929L35.5364 31.6793C35.4784 31.8956 35.4139 32.1079 35.3444 32.3178L35.3676 32.324C37.7633 32.9659 40.2345 31.5389 40.8763 29.1435L41.8184 25.6274C42.4603 23.2321 41.0336 20.761 38.6379 20.119Z" fill="#3E92C7"/>
<path d="M30.4303 32.7754C29.1257 33.2169 27.7332 33.2618 26.403 32.9054L24.3989 32.3684C23.7444 32.193 23.3561 31.5205 23.5315 30.866C23.7069 30.2115 24.3794 29.8232 25.0339 29.9986L27.038 30.5356C27.8986 30.7662 28.7997 30.7371 29.6437 30.4516L33.6968 29.0652L35.7352 21.4579C38.0772 12.7172 28.5459 14.4811 28.5459 14.4811C28.5459 14.4811 21.1732 8.18772 18.8311 16.9284L16.2624 26.5149C15.0116 31.1829 17.7819 35.9811 22.4498 37.2319C26.8111 38.4005 31.2854 36.059 32.8748 31.9392L30.4303 32.7754Z" fill="#3E92C7"/>
<path d="M31.5931 39.7839C31.435 40.447 30.3946 44.2728 27.0366 46.3028C26.3723 46.7046 25.6613 47.0045 24.9126 47.2031L40.3442 51.338L40.8208 49.5568C41.2031 48.129 40.6978 46.6178 39.5343 45.7071L31.6578 39.5426L31.5931 39.7839Z" fill="#3E92C7"/>
<path d="M13.9424 42.7943C12.0493 39.3572 13.0613 35.5238 13.2558 34.8705L13.3205 34.6292L3.41695 36.0295C1.95326 36.2365 0.760457 37.2927 0.377672 38.7201L-0.0998637 40.501L15.3314 44.6358C14.7826 44.0896 14.3168 43.4743 13.9424 42.7943Z" fill="#3E92C7"/>
<path d="M29.2595 39.0141C26.9966 40.0217 24.3885 40.2912 21.815 39.6016C19.2416 38.9121 17.1176 37.3746 15.6617 35.3706L15.6153 35.5437C15.6153 35.5437 13.3437 42.8329 20.4397 44.7343C27.5355 46.6356 29.2131 39.1872 29.2131 39.1872L29.2595 39.0141Z" fill="#3E92C7"/>
<path d="M17.6219 11.9479L18.4553 12.1712C18.9782 11.544 19.5746 11.0378 20.2426 10.6552C21.7454 9.79386 23.55 9.60903 25.4613 10.1211C27.0226 10.5395 28.381 11.3424 29.2302 11.9277C30.258 11.8453 31.8362 11.8293 33.3975 12.2477C35.3088 12.7598 36.7792 13.8222 37.6501 15.3192C38.0369 15.9847 38.3005 16.7214 38.4398 17.526L39.2729 17.7493C39.551 17.8237 39.8193 17.9158 40.0798 18.021C40.3727 15.6135 40.1411 13.5526 39.383 11.7769C38.0898 8.74724 35.2553 6.6275 30.9589 5.47627C26.6624 4.32504 23.1479 4.74356 20.5131 6.72069C18.9687 7.87943 17.7377 9.54844 16.7875 11.7799C17.0655 11.8189 17.3439 11.8734 17.6219 11.9479Z" fill="#3E92C7"/>
</g>
<defs>
<clipPath id="clip0">
<rect width="41.8708" height="41.8708" fill="white" transform="translate(10.8369) rotate(15)"/>
</clipPath>
</defs>
</svg>
