<svg width="48" height="54" viewBox="0 0 48 54" fill="none" xmlns="http://www.w3.org/2000/svg">
<path d="M47.791 52.3237L44.703 14.1089C44.642 13.355 44.0124 12.7742 43.256 12.7742H34.9658V10.9365C34.9658 4.90606 30.1243 0 24.0938 0H23.9021C17.8718 0 12.9012 4.90606 12.9012 10.9365V12.7742H4.73988C3.9835 12.7742 3.35388 13.355 3.29292 14.1089L0.196142 52.4315C0.163433 52.8356 0.301239 53.2347 0.576077 53.5326C0.850916 53.8304 1.23801 54 1.64311 54H46.3528C46.3539 54 46.3555 54 46.3567 54C47.1585 54 47.8083 53.3503 47.8083 52.5484C47.8083 52.4719 47.8025 52.3968 47.791 52.3237ZM15.8045 10.9365C15.8045 6.5069 19.4726 2.90323 23.9021 2.90323H24.0938C28.5233 2.90323 32.0625 6.5069 32.0625 10.9365V12.7742H15.8045V10.9365Z" fill="white"/>
</svg>
