<svg width="62" height="56" viewBox="0 0 62 56" fill="none" xmlns="http://www.w3.org/2000/svg">
<path d="M60.8978 30.4522C60.8055 30.1312 60.6127 29.848 60.3481 29.6437C58.1 27.9107 55.7917 26.9577 53.504 26.7427C53.504 26.7427 53.1992 26.6937 52.4652 26.6937C51.7308 26.6937 51.3566 26.7415 51.3566 26.7415C49.1507 27.0016 46.9417 27.973 44.7741 29.6437C44.5093 29.8477 44.3167 30.1313 44.2244 30.4522C43.1604 34.1401 42.8766 37.6778 43.3305 41.5858C43.7318 45.0404 44.6836 48.5078 45.794 52.357C45.8865 52.6782 46.0793 52.9615 46.3438 53.1655C48.046 54.4778 50.2538 55.2001 52.5607 55.2001C54.8676 55.2001 57.0759 54.4778 58.7781 53.1658C59.0428 52.9619 59.2355 52.6781 59.3282 52.3572C60.4386 48.5075 61.3904 45.0405 61.7917 41.5861C62.2456 37.6778 61.9618 34.1398 60.8978 30.4522ZM53.9347 36.8564C53.9347 37.6152 53.3193 38.2303 52.5607 38.2303C51.8021 38.2303 51.1872 37.6152 51.1872 36.8564V31.1268C51.1872 30.3682 51.8021 29.7528 52.5607 29.7528C53.3193 29.7528 53.9347 30.3682 53.9347 31.1268V36.8564Z" fill="white"/>
<path d="M42.1071 51.5181H39.63L37.5857 44.5673H41.7583C41.628 43.8223 41.5165 43.0777 41.4295 42.3301C41.1663 40.063 41.1345 37.9093 41.3375 35.7832H4.79134V5.12202H54.3019V24.8043C55.915 24.9661 57.5171 25.4371 59.0932 26.209V2.72635C59.0932 1.40331 58.0205 0.330688 56.6976 0.330688H2.39567C1.07262 0.330688 0 1.40331 0 2.72635V42.1716C0 43.4948 1.07262 44.5673 2.39567 44.5673H21.5074L19.4632 51.5181H16.9864C16.3575 51.5181 15.8475 52.0279 15.8475 52.6568V54.5296C15.8475 55.1585 16.3575 55.6685 16.9864 55.6685H42.1071C42.7361 55.6685 43.2459 55.1587 43.2459 54.5296V52.6568C43.2456 52.0279 42.7359 51.5181 42.1071 51.5181Z" fill="white"/>
</svg>
