<svg width="68" height="59" viewBox="0 0 68 59" fill="none" xmlns="http://www.w3.org/2000/svg">
<path d="M12.6655 16.6867H16.5913C16.5913 15.8402 16.76 15.5033 17.0386 14.9451C17.4025 14.2177 17.8999 13.2214 17.8999 11.4492C17.8999 9.67648 17.4025 8.68021 17.0386 7.95231C16.76 7.39411 16.5913 7.05725 16.5913 6.21075C16.5913 5.36426 16.76 5.0274 17.0386 4.46869C17.4025 3.74129 17.8999 2.74503 17.8999 0.97229H13.9741C13.9741 1.81879 13.8059 2.15565 13.5268 2.71436C13.1634 3.44175 12.6655 4.43802 12.6655 6.21075C12.6655 7.98349 13.1634 8.97976 13.5268 9.70715C13.8059 10.2654 13.9741 10.6022 13.9741 11.4492C13.9741 12.2952 13.8059 12.6321 13.5268 13.1903C13.1639 13.9177 12.6655 14.9139 12.6655 16.6867Z" fill="white"/>
<path d="M23.4721 16.6867H27.3979C27.3979 15.8402 27.5661 15.5033 27.8452 14.9451C28.2086 14.2177 28.7065 13.2214 28.7065 11.4492C28.7065 9.67648 28.2086 8.68021 27.8452 7.95231C27.5661 7.39411 27.3979 7.05725 27.3979 6.21075C27.3979 5.36426 27.5661 5.0274 27.8452 4.46869C28.2086 3.74129 28.7065 2.74503 28.7065 0.97229H24.7807C24.7807 1.81879 24.612 2.15565 24.3334 2.71436C23.97 3.44175 23.4721 4.43802 23.4721 6.21075C23.4721 7.98349 23.97 8.97976 24.3329 9.70715C24.612 10.2654 24.7807 10.6022 24.7807 11.4492C24.7807 12.2952 24.612 12.6321 24.3334 13.1903C23.97 13.9177 23.4721 14.9139 23.4721 16.6867Z" fill="white"/>
<path d="M34.2782 16.6867H38.2039C38.2039 15.8402 38.3721 15.5033 38.6512 14.9451C39.0147 14.2177 39.5125 13.2214 39.5125 11.4492C39.5125 9.67648 39.0147 8.68021 38.6512 7.95231C38.3721 7.39411 38.2039 7.05725 38.2039 6.21075C38.2039 5.36426 38.3721 5.0274 38.6512 4.46869C39.0147 3.74129 39.5125 2.74503 39.5125 0.97229H35.5868C35.5868 1.81879 35.4181 2.15565 35.1395 2.71436C34.776 3.44175 34.2782 4.43802 34.2782 6.21075C34.2782 7.98349 34.776 8.97976 35.139 9.70715C35.4181 10.2654 35.5868 10.6022 35.5868 11.4492C35.5868 12.2952 35.4181 12.6321 35.1395 13.1903C34.776 13.9177 34.2782 14.9139 34.2782 16.6867Z" fill="white"/>
<path d="M55.6665 20.6155H53.0375V28.467H55.6665C57.8364 28.467 59.5953 30.226 59.5953 32.3959C59.5953 34.5658 57.8364 36.3252 55.6665 36.3252H52.9205C52.6726 39.0733 52.0305 41.7099 51.0491 44.1768H55.6665C62.1624 44.1768 67.4469 38.8918 67.4469 32.3959C67.4469 25.9005 62.1619 20.6155 55.6665 20.6155Z" fill="white"/>
<path d="M49.1119 33.7633V20.6155H0.447021V33.7633C0.447021 47.1804 11.3625 58.0959 24.7797 58.0959C38.1964 58.0959 49.1119 47.1804 49.1119 33.7633Z" fill="white"/>
</svg>
