<svg width="53" height="59" viewBox="0 0 53 59" fill="none" xmlns="http://www.w3.org/2000/svg">
<path d="M40.777 21.9716C39.8584 25.4836 37.7149 26.2572 36.5713 26.4124C35.8668 27.8208 34.3182 30.6993 32.7691 32.1456C32.1499 32.7235 31.3453 33.2112 30.3776 33.5953C29.1422 34.0855 27.8374 34.3341 26.4999 34.3341C25.1625 34.3341 23.8577 34.0855 22.6222 33.5953C21.6548 33.2115 20.8499 32.7237 20.2307 32.1456C18.6813 30.6996 17.1328 27.8208 16.4283 26.4124C15.2849 26.2572 13.1414 25.4839 12.2229 21.9716C11.7316 20.0935 11.8574 18.5625 12.597 17.421C12.9239 16.9165 13.3201 16.5729 13.6891 16.3402C13.6902 15.9653 13.7059 15.4959 13.7493 14.962C13.085 14.0389 12.1819 12.0471 13.3004 8.82314C14.4827 5.41483 17.1557 4.88848 18.446 4.84286C18.8822 4.03201 19.7062 2.88079 21.2027 1.82242C22.8638 0.646909 25.0329 -0.000366211 27.3102 -0.000366211C30.1126 -0.000366211 32.9325 0.985932 35.4649 2.85191C39.5707 5.8772 39.219 12.588 39.1183 13.8065C39.2673 14.8278 39.3086 15.7137 39.3105 16.34C39.6794 16.5726 40.0757 16.9162 40.4026 17.4207C41.1422 18.5625 41.2679 20.0932 40.777 21.9716ZM52.7847 48.1242V57.65C52.7847 58.3953 52.1804 58.9996 51.4351 58.9996H1.56446C0.819201 58.9996 0.214844 58.3953 0.214844 57.65V48.1242C0.214844 44.2216 2.55615 40.7634 6.1796 39.3139L17.9793 34.594C18.3188 34.4585 18.6989 34.4658 19.0328 34.6159C19.3664 34.7654 19.6253 35.0443 19.7494 35.3881L22.7159 43.5892L23.3032 41.9006L22.3688 39.6162C22.1987 39.2 22.2467 38.7263 22.4975 38.353C22.7483 37.9797 23.1683 37.7556 23.618 37.7556H29.3819C29.8316 37.7556 30.2519 37.9797 30.5023 38.353C30.7531 38.7263 30.8011 39.2 30.6311 39.6162L29.6966 41.9006L30.284 43.5892L33.2504 35.3881C33.3746 35.0443 33.6334 34.7654 33.9671 34.6159C34.301 34.4661 34.6813 34.4588 35.0206 34.594L46.8203 39.3139C50.4437 40.7634 52.7847 44.2216 52.7847 48.1242ZM45.6005 49.1599C45.6005 48.4146 44.9961 47.8103 44.2509 47.8103H35.1895C34.4443 47.8103 33.8399 48.4146 33.8399 49.1599V53.368C33.8399 54.1132 34.4443 54.7176 35.1895 54.7176H44.2509C44.9961 54.7176 45.6005 54.1132 45.6005 53.368V49.1599Z" fill="white"/>
</svg>
