<svg width="61" height="61" viewBox="0 0 61 61" fill="none" xmlns="http://www.w3.org/2000/svg">
<path d="M52.0666 8.9328C46.3058 3.17223 38.6466 -0.000366211 30.4998 -0.000366211C22.3529 -0.000366211 14.6937 3.17223 8.93292 8.9328C3.17235 14.6935 -0.000244141 22.3527 -0.000244141 30.4995C-0.000244141 38.6465 3.17235 46.3057 8.93292 52.0664C14.6938 57.827 22.353 60.9996 30.4998 60.9996C38.6465 60.9996 46.3057 57.827 52.0666 52.0664C57.8272 46.3057 60.9998 38.6465 60.9998 30.4995C60.9998 22.3527 57.8272 14.6935 52.0666 8.9328ZM41.2224 45.3052H37.6482V32.7955H23.3513V45.3052H19.7771V15.694H23.3513V29.2213H37.6482V15.694H41.2224V45.3052Z" fill="white"/>
</svg>
