<svg width="50" height="54" viewBox="0 0 50 54" fill="none" xmlns="http://www.w3.org/2000/svg">
<path d="M43.8998 5.39967H32.6003C31.4932 2.26763 28.5232 -0.000366211 24.9997 -0.000366211C21.4762 -0.000366211 18.5061 2.26763 17.3992 5.39967H6.09974C3.11629 5.39967 0.699707 7.81613 0.699707 10.7997V48.5996C0.699707 51.583 3.11616 53.9996 6.09974 53.9996H43.8998C46.8832 53.9996 49.2998 51.5832 49.2998 48.5996V10.7996C49.2997 7.81613 46.8832 5.39967 43.8998 5.39967ZM24.9997 5.39967C26.4846 5.39967 27.6996 6.60113 27.6996 8.09963C27.6996 9.59813 26.4846 10.7996 24.9997 10.7996C23.5147 10.7996 22.2997 9.59813 22.2997 8.09963C22.2997 6.60113 23.5147 5.39967 24.9997 5.39967ZM19.5998 43.1996L8.7997 32.3996L12.6202 28.5791L19.5998 35.5586L37.3793 17.7791L41.1998 21.5997L19.5998 43.1996Z" fill="white"/>
</svg>
