<svg width="17" height="17" viewBox="0 0 17 17" fill="none" xmlns="http://www.w3.org/2000/svg">
<g clip-path="url(#clip0)">
<path d="M10.2173 15.4842C10.0771 15.5192 9.93418 15.5502 9.79232 15.5763C9.42148 15.6453 9.17631 16.002 9.2449 16.3731C9.27878 16.5557 9.38249 16.7078 9.52329 16.8071C9.6684 16.9093 9.85309 16.9554 10.0413 16.9204C10.2102 16.889 10.3805 16.8521 10.5476 16.8104C10.9138 16.7193 11.1369 16.3483 11.0455 15.9823C10.9544 15.6159 10.5837 15.393 10.2173 15.4842Z" fill="white" fill-opacity="0.8"/>
<path d="M15.2708 6.324C15.3187 6.46827 15.4101 6.58605 15.5256 6.66743C15.6967 6.78799 15.9207 6.82855 16.1344 6.75788C16.4928 6.63889 16.6869 6.25248 16.5684 5.89432C16.5144 5.73105 16.4545 5.56726 16.3906 5.40779C16.2504 5.05734 15.8529 4.88672 15.5023 5.0269C15.152 5.167 14.9813 5.56463 15.1216 5.91519C15.1752 6.04923 15.2255 6.18682 15.2708 6.324Z" fill="white" fill-opacity="0.8"/>
<path d="M12.4379 14.5085C12.3174 14.5881 12.193 14.6651 12.0676 14.7373C11.7406 14.9259 11.6286 15.344 11.8171 15.6709C11.8683 15.7598 11.9365 15.8324 12.0151 15.888C12.2259 16.0363 12.5122 16.0585 12.7506 15.9212C12.8996 15.8353 13.0478 15.7438 13.1914 15.6489C13.5061 15.4409 13.5928 15.0169 13.3847 14.702C13.1767 14.3869 12.7528 14.3004 12.4379 14.5085Z" fill="white" fill-opacity="0.8"/>
<path d="M16.9935 8.23275C16.9786 7.85555 16.6609 7.56196 16.2836 7.57668C15.9067 7.59156 15.6129 7.90937 15.6277 8.28643C15.6334 8.43059 15.6349 8.57691 15.6315 8.72093C15.6262 8.95748 15.7419 9.16833 15.9217 9.29507C16.0288 9.37049 16.1588 9.41613 16.2998 9.41935C16.677 9.42772 16.9895 9.12854 16.9979 8.75115C17.0017 8.57907 17.0003 8.40472 16.9935 8.23275Z" fill="white" fill-opacity="0.8"/>
<path d="M15.1594 12.7107C14.8569 12.4837 14.429 12.5453 14.2024 12.8473C14.1157 12.9629 14.0243 13.0771 13.9308 13.187C13.6863 13.4743 13.7208 13.9057 14.0081 14.1504C14.0244 14.1643 14.041 14.177 14.0582 14.189C14.3437 14.3903 14.7406 14.344 14.9714 14.0731C15.0832 13.9419 15.1921 13.8055 15.2957 13.6674C15.5223 13.3655 15.461 12.9373 15.1594 12.7107Z" fill="white" fill-opacity="0.8"/>
<path d="M16.164 10.2402C15.8039 10.1273 15.4204 10.3278 15.3075 10.6879C15.2643 10.8255 15.2165 10.9638 15.1648 11.0992C15.0513 11.3972 15.16 11.7251 15.4093 11.9009C15.455 11.933 15.5053 11.9602 15.5601 11.9809C15.9127 12.1155 16.3075 11.9386 16.4419 11.5858C16.5033 11.4248 16.5602 11.2603 16.6117 11.0968C16.7244 10.7366 16.5241 10.3532 16.164 10.2402Z" fill="white" fill-opacity="0.8"/>
<path d="M7.23555 15.5825C6.62454 15.4728 6.03842 15.286 5.48263 15.0254C5.47605 15.022 5.47017 15.0181 5.46326 15.0149C5.33229 14.9533 5.20154 14.8872 5.07481 14.8182C5.07437 14.8177 5.07357 14.8174 5.07287 14.8171C4.84034 14.6891 4.61341 14.5474 4.39294 14.3922C1.17815 12.1276 0.405179 7.66972 2.66992 4.45496C3.16238 3.75617 3.75833 3.1732 4.42273 2.71114C4.43091 2.70544 4.4391 2.69978 4.44721 2.69404C6.78844 1.08087 9.96746 0.97215 12.4535 2.62983L11.9195 3.4013C11.7711 3.61603 11.8624 3.77251 12.1223 3.74912L14.4416 3.54148C14.7018 3.51809 14.8574 3.29302 14.7874 3.04175L14.1646 0.797765C14.0949 0.5462 13.9163 0.516088 13.7678 0.730781L13.2326 1.50408C11.4082 0.279397 9.22 -0.187592 7.04812 0.189025C6.82937 0.226884 6.61369 0.273221 6.40097 0.327159C6.39932 0.327451 6.39801 0.327634 6.39669 0.327926C6.38847 0.329936 6.38014 0.332604 6.37214 0.334833C4.49928 0.815781 2.86525 1.9081 1.69926 3.4666C1.68943 3.47826 1.6793 3.48966 1.67002 3.50234C1.63125 3.55456 1.59277 3.60799 1.55509 3.66142C1.49348 3.74898 1.43274 3.83873 1.37464 3.92848C1.36737 3.93929 1.36181 3.95029 1.35545 3.96122C0.393266 5.45223 -0.070835 7.17598 0.00875656 8.93087C0.00893928 8.93664 0.00861039 8.94245 0.00875656 8.94837C0.0164672 9.1198 0.0300614 9.2936 0.0485158 9.4647C0.0495025 9.47573 0.0519509 9.48618 0.0538146 9.49722C0.0728903 9.66927 0.0968262 9.84171 0.126828 10.0141C0.431747 11.7733 1.26157 13.3562 2.50504 14.5879C2.50792 14.5908 2.51092 14.5939 2.51384 14.5969C2.51487 14.5981 2.516 14.5986 2.51699 14.5997C2.85107 14.9292 3.21445 15.234 3.60573 15.5096C4.62967 16.2311 5.76986 16.708 6.99436 16.9277C7.3659 16.9945 7.72081 16.7472 7.78746 16.3758C7.85408 16.0042 7.60697 15.649 7.23555 15.5825Z" fill="white" fill-opacity="0.8"/>
<path d="M8.0805 3.04061C7.77489 3.04061 7.52734 3.28837 7.52734 3.59355V9.10236L12.5656 11.7068C12.6467 11.7488 12.7335 11.7686 12.8189 11.7686C13.0191 11.7686 13.2123 11.6596 13.3106 11.4695C13.4507 11.1981 13.3447 10.8647 13.0733 10.7246L8.63304 8.42901V3.59355C8.633 3.28837 8.38575 3.04061 8.0805 3.04061Z" fill="white" fill-opacity="0.8"/>
</g>
<defs>
<clipPath id="clip0">
<rect width="17" height="17" fill="white" transform="translate(0 0.000274658)"/>
</clipPath>
</defs>
</svg>
