<svg width="298" height="36" viewBox="0 0 298 36" fill="none" xmlns="http://www.w3.org/2000/svg">
<g clip-path="url(#clip0)">
<path d="M204.391 6.93267L211.332 0H201.625L195.06 6.93267H204.391Z" fill="white"/>
<path d="M65.8721 18.208C66.9004 17.1681 67.6967 15.9203 68.2078 14.5475H41.4216V21.4802H57.1477C58.843 21.5069 60.5285 21.2154 62.1173 20.6205C63.5246 20.0921 64.8044 19.2698 65.8721 18.208Z" fill="white"/>
<path d="M196.655 14.5309H180.361V21.4691H201.675L196.655 14.5309Z" fill="white"/>
<path d="M197.848 29.0673L202.674 36H212.188L207.174 29.0673H197.848Z" fill="white"/>
<path d="M68.4066 6.93268C68.4066 6.86058 68.3679 6.77739 68.3458 6.70529C67.9299 5.35214 67.2187 4.10922 66.2641 3.06702C65.2899 2.03971 64.0888 1.25696 62.7578 0.782013C61.1596 0.231083 59.4775 -0.0336098 57.7882 4.94393e-06H41.4216V6.93268H68.4066Z" fill="white"/>
<path d="M78.782 29.0673V35.9889H90.5489C90.8913 35.9889 91.4269 35.9889 92.1502 35.939C92.96 35.8948 93.764 35.7759 94.5522 35.5841C95.4792 35.3584 96.3803 35.0368 97.2413 34.6246C98.1928 34.1678 99.0491 33.5335 99.7648 32.7555C100.577 31.8568 101.211 30.81 101.631 29.6719C101.708 29.4778 101.769 29.2615 101.835 29.0562L78.782 29.0673Z" fill="white"/>
<path d="M78.782 21.4636V14.5309H90.5489C90.8913 14.5309 91.4269 14.5309 92.1502 14.5808C92.96 14.625 93.764 14.7439 94.5522 14.9357C95.4792 15.1614 96.3803 15.483 97.2413 15.8952C98.1928 16.352 99.0491 16.9863 99.7648 17.7643C100.577 18.663 101.211 19.7098 101.631 20.8479C101.708 21.0421 101.769 21.2584 101.835 21.4636H78.782Z" fill="white"/>
<path d="M24.0335 6.93267L30.9799 0H21.2671L14.7017 6.93267H24.0335Z" fill="white"/>
<path d="M16.3031 14.5309H0.00830078V21.4691H21.3224L16.3031 14.5309Z" fill="white"/>
<path d="M17.4958 29.0673L22.3219 36H31.8359L26.8221 29.0673H17.4958Z" fill="white"/>
<path d="M9.52233 0H0.00830078V6.93267H9.52233V0Z" fill="white"/>
<path d="M9.52233 29.0673H0.00830078V36H9.52233V29.0673Z" fill="white"/>
<path d="M50.93 29.0673H41.416V36H50.93V29.0673Z" fill="white"/>
<path d="M88.2906 0H78.7766V6.93267H88.2906V0Z" fill="white"/>
<path d="M117.357 0H107.843V6.93267H117.357V0Z" fill="white"/>
<path d="M117.357 14.5309H107.843V21.4636H117.357V14.5309Z" fill="white"/>
<path d="M117.357 29.0673H107.843V36H117.357V29.0673Z" fill="white"/>
<path d="M139.389 29.0673H129.875V36H139.389V29.0673Z" fill="white"/>
<path d="M168.621 29.0673H159.107V36H168.621V29.0673Z" fill="white"/>
<path d="M189.875 0H180.361V6.93267H189.875V0Z" fill="white"/>
<path d="M189.875 29.0673H180.361V36H189.875V29.0673Z" fill="white"/>
<path d="M267.77 29.0673H258.256V36H267.77V29.0673Z" fill="white"/>
<path d="M297.003 29.0673H287.489V36H297.003V29.0673Z" fill="white"/>
<path d="M143.486 14.5309H129.875V21.4691H145.789L143.486 14.5309Z" fill="white"/>
<path d="M143.845 29.0673L146.164 36H152.338L154.651 29.0673H143.845Z" fill="white"/>
<path d="M138.616 0H129.875V6.93267H140.919L138.616 0Z" fill="white"/>
<path d="M152.63 21.4691H168.621V14.5309H154.938L152.63 21.4691Z" fill="white"/>
<path d="M159.803 0L157.5 6.93267H168.621V0H159.803Z" fill="white"/>
<path d="M271.868 14.5309H258.256V21.4691H274.17L271.868 14.5309Z" fill="white"/>
<path d="M266.997 0H258.256V6.93267H269.3L266.997 0Z" fill="white"/>
<path d="M272.232 29.0673L274.546 36H280.719L283.033 29.0673H272.232Z" fill="white"/>
<path d="M288.19 0L285.882 6.93267H297.008V0H288.19Z" fill="white"/>
<path d="M281.017 21.4691H297.008V14.5309H283.32L281.017 21.4691Z" fill="white"/>
<path d="M245.838 6.87169C245.449 6.28834 245.021 5.73242 244.557 5.20784C243.121 3.58156 241.352 2.28569 239.372 1.40873C237.216 0.462418 234.883 -0.00849471 232.531 0.0277505C230.055 -0.0263684 227.596 0.444183 225.314 1.40873C222.678 2.53519 220.453 4.45063 218.941 6.89387L245.838 6.87169Z" fill="white"/>
<path d="M218.875 29.0063C219.264 29.638 219.696 30.2421 220.167 30.8144C221.572 32.4575 223.333 33.7568 225.313 34.6135C227.596 35.5761 230.055 36.0448 232.53 35.9889C234.883 36.0251 237.216 35.5542 239.372 34.6079C241.351 33.729 243.119 32.4334 244.557 30.8088C245.046 30.2374 245.496 29.6333 245.904 29.0008L218.875 29.0063Z" fill="white"/>
<path d="M226.186 14.4699H216.297C215.991 16.7706 215.991 19.1019 216.297 21.4026H226.181V14.4754L226.186 14.4699Z" fill="white"/>
<path d="M248.704 14.4699H238.853V21.4026H248.709C248.881 20.2552 248.968 19.0965 248.969 17.9362C248.969 16.7757 248.88 15.6168 248.704 14.4699Z" fill="white"/>
</g>
<defs>
<clipPath id="clip0">
<rect width="297" height="36" fill="white" transform="translate(0.00830078)"/>
</clipPath>
</defs>
</svg>
